<?xml version="1.0" encoding="UTF-8" standalone="no"?>
<!DOCTYPE svg PUBLIC "-//W3C//DTD SVG 1.1//EN" "http://www.w3.org/Graphics/SVG/1.1/DTD/svg11.dtd">
<svg width="100%" height="100%" viewBox="0 0 1800 266" version="1.1" xmlns="http://www.w3.org/2000/svg" xmlns:xlink="http://www.w3.org/1999/xlink" xml:space="preserve" xmlns:serif="http://www.serif.com/" style="fill-rule:evenodd;clip-rule:evenodd;stroke-linejoin:round;stroke-miterlimit:1.41421;">
    <g id="Layer-1" serif:id="Layer 1" transform="matrix(4.16667,0,0,4.16667,-102.501,-619.619)">
        <g transform="matrix(1,0,0,1,456.6,188.811)">
            <path d="M0,-22.25L0,-40.102L-40.141,-40.102C-40.186,-40.102 -40.238,-40.098 -40.297,-40.098L-40.639,-40.098C-45.844,-40.098 -50.527,-37.836 -53.764,-34.248C-56.596,-31.11 -58.32,-26.963 -58.32,-22.416L-58.32,-20.85C-58.041,-17.526 -56.859,-14.465 -54.994,-11.916C-54.965,-11.872 -54.936,-11.823 -54.906,-11.779C-54.672,-11.477 -54.443,-11.182 -54.193,-10.893C-51.996,-8.285 -49.047,-6.322 -45.688,-5.332C-44.105,-4.867 -42.426,-4.619 -40.697,-4.619L-17.68,-4.619C-14.936,-4.619 -12.705,-2.422 -12.627,0.303C-12.705,2.822 -14.613,4.893 -17.084,5.186L-40.648,5.186C-42.719,5.186 -44.496,3.932 -45.277,2.139C-45.316,2.061 -45.355,1.973 -45.375,1.885C-45.395,1.836 -45.414,1.787 -45.43,1.738C-45.58,1.285 -45.674,0.807 -45.684,0.303C-45.684,0.332 -45.684,0.371 -45.688,0.391C-45.688,0.303 -45.697,0.215 -45.697,0.127L-45.697,-0.039L-58.324,-0.039L-58.324,17.818L-41.781,17.818C-41.406,17.842 -41.02,17.852 -40.639,17.852L-17.68,17.852C-8.852,17.852 -1.508,11.344 -0.209,2.871C-0.072,2.037 -0.004,1.172 -0.004,0.303C-0.004,-0.902 -0.137,-2.08 -0.385,-3.213C-0.99,-6.127 -2.328,-8.779 -4.184,-10.964C-7.426,-14.799 -12.27,-17.246 -17.68,-17.246L-17.719,-17.246L-40.639,-17.246L-40.688,-17.246L-40.697,-17.246C-43.227,-17.246 -45.316,-19.111 -45.688,-21.53L-45.688,-22.416C-45.688,-25.199 -43.422,-27.471 -40.639,-27.471L-17.68,-27.471C-17.221,-27.471 -16.771,-27.406 -16.352,-27.287C-16.332,-27.287 -16.322,-27.282 -16.303,-27.277C-16.172,-27.24 -16.049,-27.199 -15.928,-27.152C-15.902,-27.148 -15.889,-27.136 -15.863,-27.129C-15.742,-27.082 -15.635,-27.033 -15.512,-26.977C-15.488,-26.967 -15.473,-26.96 -15.449,-26.947C-15.336,-26.889 -15.219,-26.828 -15.111,-26.762C-15.098,-26.752 -15.082,-26.742 -15.063,-26.732C-14.951,-26.664 -14.834,-26.592 -14.73,-26.514C-14.721,-26.506 -14.721,-26.504 -14.711,-26.501C-13.652,-25.727 -12.895,-24.541 -12.699,-23.186C-12.66,-22.937 -12.627,-22.68 -12.627,-22.422L-12.627,-22.25L0,-22.25" style="fill:white;fill-rule:nonzero;"/>
        </g>
        <g transform="matrix(1,0,0,1,388.725,185.441)">
            <path d="M0,-15.402L0,-18.966L0,-18.984C0,-21.759 2.266,-24.02 5.039,-24.02L5.326,-24.02L5.326,-36.574L0,-36.574L-12.633,-36.574L-17.959,-36.574L-17.959,-24.02L-17.686,-24.02C-14.912,-24.02 -12.637,-21.759 -12.633,-18.984L-12.633,3.477C-12.637,6.27 -14.912,8.522 -17.686,8.522L-34.893,8.522C-37.682,8.522 -39.941,6.25 -39.941,3.467L-39.941,-18.966C-39.941,-21.755 -37.682,-24.02 -34.893,-24.02L-34.615,-24.02L-34.615,-36.574L-52.568,-36.574L-52.568,3.467C-52.568,13.219 -44.645,21.149 -34.893,21.149L-17.852,21.149L-17.852,21.172L5.215,21.172L5.215,8.541L5.039,8.541C2.275,8.541 0,6.28 0,3.506L0,3.467L0,-15.402" style="fill:white;fill-rule:nonzero;"/>
        </g>
        <g transform="matrix(1,0,0,1,290.853,206.652)">
            <path d="M0,-57.814C-9.746,-57.814 -17.682,-49.882 -17.682,-40.136L-17.682,-17.679C-17.682,-7.929 -9.746,0 0,0L22.963,0C32.705,0 40.639,-7.929 40.639,-17.679L40.639,-40.136C40.639,-49.882 32.705,-57.814 22.963,-57.814L0,-57.814M-5.059,-17.679L-5.059,-40.136C-5.059,-42.919 -2.783,-45.182 0,-45.182L22.963,-45.182C25.752,-45.182 28.008,-42.919 28.008,-40.136L28.008,-17.679C28.008,-14.892 25.752,-12.626 22.963,-12.626L0,-12.626C-2.783,-12.626 -5.059,-14.892 -5.059,-17.679" style="fill:white;fill-rule:nonzero;"/>
        </g>
        <g transform="matrix(1,0,0,1,250.844,206.662)">
            <path d="M0,-57.816L0,-45.187L0.166,-45.187C2.959,-45.187 5.225,-42.92 5.225,-40.136L5.225,-17.675C5.225,-14.892 2.959,-12.627 0.166,-12.627L-0.117,-12.627L-0.117,0L17.852,0L17.852,-17.675L17.852,-57.816L0,-57.816" style="fill:white;fill-rule:nonzero;"/>
        </g>
        <g transform="matrix(1,0,0,1,228.549,206.645)">
            <path d="M0,-57.709L-17.044,-57.709L-17.044,-57.727L-22.262,-57.727L-34.891,-57.727L-40.113,-57.727L-40.113,-45.097L-39.941,-45.097C-37.166,-45.097 -34.9,-42.846 -34.891,-40.067L-34.891,-17.58C-34.9,-14.797 -37.164,-12.535 -39.941,-12.535L-40.225,-12.535L-40.225,0.018L-16.93,0.018L-16.93,-12.535L-17.215,-12.535C-19.99,-12.535 -22.254,-14.797 -22.262,-17.58L-22.262,-17.59L-22.262,-40.043C-22.254,-42.818 -19.99,-45.074 -17.215,-45.074L0,-45.074C2.783,-45.074 5.053,-42.812 5.053,-40.028L5.053,-17.59L5.043,-17.59C5.043,-14.807 2.783,-12.535 0,-12.535L-0.286,-12.535L-0.286,0.018L17.676,0.018L17.676,-0.074L17.68,-0.074L17.68,-40.028C17.68,-49.777 9.75,-57.709 0,-57.709" style="fill:white;fill-rule:nonzero;"/>
        </g>
        <g transform="matrix(1,0,0,1,184.236,166.525)">
            <path d="M0,22.53L0,0.092C0,-9.658 -7.937,-17.589 -17.68,-17.589L-34.89,-17.589C-39.213,-17.589 -43.184,-16.022 -46.26,-13.437C-49.33,-16.022 -53.298,-17.589 -57.621,-17.589L-74.66,-17.589L-74.66,-17.607L-79.883,-17.607L-92.512,-17.607L-97.734,-17.607L-97.734,-4.977L-97.565,-4.977C-94.779,-4.977 -92.52,-2.718 -92.512,0.059L-92.512,0.087L-92.514,0.092L-92.514,18.962L-92.512,18.962L-92.512,22.54C-92.52,25.323 -94.779,27.585 -97.565,27.585L-97.844,27.585L-97.844,40.137L-74.553,40.137L-74.553,27.585L-74.834,27.585C-77.609,27.585 -79.877,25.323 -79.883,22.54L-79.883,22.53L-79.883,0.077C-79.877,-2.699 -77.609,-4.954 -74.834,-4.954L-57.621,-4.954C-54.841,-4.954 -52.582,-2.699 -52.572,0.077L-52.572,23.194C-52.9,25.665 -55.012,27.585 -57.57,27.585L-57.855,27.585L-57.855,40.137L-39.893,40.137L-39.893,22.53L-39.938,22.53L-39.938,0.092L-39.938,0.072C-39.932,-2.704 -37.668,-4.954 -34.89,-4.954L-17.68,-4.954C-14.895,-4.954 -12.627,-2.692 -12.627,0.092L-12.627,23.194C-12.953,25.665 -15.072,27.585 -17.637,27.585L-17.914,27.585L-17.914,40.137L0.049,40.137L0.049,22.53L0,22.53" style="fill:white;fill-rule:nonzero;"/>
        </g>
        <g transform="matrix(1,0,0,1,42.2813,206.662)">
            <path d="M0,-57.816C-9.746,-57.816 -17.681,-49.884 -17.681,-40.136L-17.681,-17.675C-17.681,-7.933 -9.746,0 0,0L22.961,0C32.707,0 40.643,-7.933 40.643,-17.675L40.643,-40.136C40.643,-49.884 32.707,-57.816 22.961,-57.816L0,-57.816M-5.051,-17.675L-5.051,-40.136C-5.051,-42.92 -2.785,-45.187 0,-45.187L22.961,-45.187C25.742,-45.187 28.013,-42.92 28.013,-40.136L28.013,-17.675C28.013,-14.892 25.742,-12.627 22.961,-12.627L0,-12.627C-2.785,-12.627 -5.051,-14.892 -5.051,-17.675" style="fill:white;fill-rule:nonzero;"/>
        </g>
        <g transform="matrix(1,0,0,1,328.92,208.846)">
            <path d="M0,-4.017C-1.121,-2.889 -1.121,-1.063 0,0.065L2.596,2.643C3.713,3.771 5.543,3.771 6.667,2.643L9.313,0.001C10.441,-1.117 10.441,-2.943 9.313,-4.071L6.731,-6.66C5.604,-7.788 3.767,-7.788 2.649,-6.66L0,-4.017" style="fill:white;fill-rule:nonzero;"/>
        </g>
    </g>
</svg>
